<?xml version="1.0" encoding="UTF-8"?>
<svg xmlns="http://www.w3.org/2000/svg" xmlns:xlink="http://www.w3.org/1999/xlink" viewBox="0 0 480 480" width="480px" height="480px">
<g id="surface46289707">
<path style=" stroke:none;fill-rule:nonzero;fill:rgb(100%,100%,100%);fill-opacity:1;" d="M 240 40 C 129.539062 40 40 129.539062 40 240 C 40 350.460938 129.539062 440 240 440 C 350.460938 440 440 350.460938 440 240 C 440 129.539062 350.460938 40 240 40 Z M 240 40 "/>
<path style=" stroke:none;fill-rule:nonzero;fill:rgb(100%,100%,100%);fill-opacity:1;" d="M 360 171.199219 C 351.179688 175.109375 340.011719 178.78125 330 180 C 340.179688 173.960938 356.328125 161.378906 360 150 C 350.488281 155.589844 333.289062 161.558594 322.070312 163.71875 C 297.890625 138.078125 240 147.550781 240 200 L 240 220 C 200 220 161 189.53125 136.730469 160 C 114.191406 198.070312 155.308594 226.890625 160 230 C 151.929688 229.75 136.648438 223.589844 130 220 C 130 220.160156 130 220.359375 130 220.570312 C 130 244.238281 146.609375 260.308594 169.121094 264.789062 C 165.011719 265.917969 160 270 140.71875 270 C 146.980469 289.351562 178.449219 299.578125 200 300 C 173.828125 320.289062 128.738281 320.789062 120 319.769531 C 209.890625 372.660156 346.691406 324.898438 339.820312 195 C 349.5 188.179688 353.417969 181.039062 360 171.199219 "/>
</g>
</svg>
